# xmcd CD database file generated by OrangeCD 5.2
#
# Track frame offsets:
#	150
#	14107
#	25722
#	37535
#	46792
#	57067
#	67130
#	76257
#	92215
#	102555
#	115605
#	136502
#	148970
#	164980
#	176370
#	186782
#	199395
#	218065
#	232982
#	244167
#	255267
#	266930
#	279015
#
# Disc length: 3871 seconds
#
# Revision: 2
# Processed by: cddbd v1.5.1PL0 Copyright (c) Steve Scherf et al.
# Submitted via: OrangeCD 5.2
#
DISCID=400f1d17
DTITLE=Bill Monroe - The Music Of Bill Monroe From 1936 To 1994 [CD4]
DYEAR=1994
DGENRE=Bluegrass
TTITLE0=Kentucky Waltz
TTITLE1=Get Up John
TTITLE2=Lonesome Moonlight Waltz
TTITLE3=Rocky Road Blues
TTITLE4=Jenny Lynn
TTITLE5=My Old Kentucky And You
TTITLE6=You Won't Be Satisfied That Way
TTITLE7=Jerusalem Ridge
TTITLE8=Ashland Breakdown
TTITLE9=Come Hither To Go Yonder
TTITLE10=My Last Days On Earth
TTITLE11=My Sweet Blue-Eyed Darlin'
TTITLE12=Travelin' This Lonesome Road
TTITLE13=The Old Brown County Barn
TTITLE14=Stay Away From Me
TTITLE15=The Long Bow
TTITLE16=The Old Cross Roads
TTITLE17=Southern Flavor
TTITLE18=Take Courage Un' Tomorrow
TTITLE19=Pike County Breakdown
TTITLE20=I'm Working On A Building
TTITLE21=You're Drifting Away
TTITLE22=Boston Boy
EXTD=
EXTT0=
EXTT1=
EXTT2=
EXTT3=
EXTT4=
EXTT5=
EXTT6=
EXTT7=
EXTT8=
EXTT9=
EXTT10=
EXTT11=
EXTT12=
EXTT13=
EXTT14=
EXTT15=
EXTT16=
EXTT17=
EXTT18=
EXTT19=
EXTT20=
EXTT21=
EXTT22=
PLAYORDER=
